<?xml version="1.0" encoding="utf-8"?>
<!-- Generator: Adobe Illustrator 18.1.1, SVG Export Plug-In . SVG Version: 6.00 Build 0)  -->
<svg version="1.1"
	 id="svg2" xmlns:inkscape="http://www.inkscape.org/namespaces/inkscape" xmlns:rdf="http://www.w3.org/1999/02/22-rdf-syntax-ns#" xmlns:sodipodi="http://sodipodi.sourceforge.net/DTD/sodipodi-0.dtd" xmlns:svg="http://www.w3.org/2000/svg" xmlns:dc="http://purl.org/dc/elements/1.1/" xmlns:cc="http://creativecommons.org/ns#" inkscape:export-ydpi="58.799999" inkscape:version="0.48+devel r13193 custom" inkscape:export-xdpi="58.799999" inkscape:export-filename="/home/matteo/Sites/add-to-homescreen/imgs/icon-152x152.png" sodipodi:docname="icon.svg"
	 xmlns="http://www.w3.org/2000/svg" xmlns:xlink="http://www.w3.org/1999/xlink" x="0px" y="0px" viewBox="69 -121.5 300 300"
	 enable-background="new 69 -121.5 300 300" xml:space="preserve">
<sodipodi:namedview  showgrid="false" fit-margin-left="0" pagecolor="#ffffff" fit-margin-top="0" id="base" inkscape:cx="106.40376" inkscape:cy="260.41876" bordercolor="#666666" inkscape:zoom="0.7" borderopacity="1.0" fit-margin-bottom="0" fit-margin-right="0" inkscape:window-maximized="0" inkscape:window-y="99" inkscape:window-x="534" inkscape:window-height="1080" inkscape:window-width="1345" inkscape:pageshadow="2" inkscape:current-layer="layer1" inkscape:pageopacity="0.0" inkscape:document-units="px">
	</sodipodi:namedview>
<g>
	<path fill="#FFFFFF" d="M131.4,178c-34.1,0-61.9-27.8-61.9-61.9V-59.1c0-34.1,27.8-61.9,61.9-61.9h175.3
		c34.1,0,61.9,27.8,61.9,61.9v175.3c0,34.1-27.8,61.9-61.9,61.9H131.4z"/>
	<path fill="#DBDBDB" d="M306.6-120.5c33.8,0,61.4,27.5,61.4,61.4v175.3c0,33.8-27.5,61.4-61.4,61.4H131.4
		C97.5,177.5,70,150,70,116.2V-59.1c0-33.8,27.5-61.4,61.4-61.4H306.6 M306.6-121.5H131.4C96.9-121.5,69-93.5,69-59.1v175.3
		c0,34.4,27.9,62.4,62.4,62.4h175.3c34.4,0,62.4-27.9,62.4-62.4V-59.1C369-93.5,341.1-121.5,306.6-121.5L306.6-121.5z"/>
</g>
<g>
	<path fill="#1EB584" d="M248.8,84.6c0-0.2-0.1-0.5-0.3-0.7l0,0l-2.4-3.4l0,0c-0.2-0.3-0.3-0.6-0.3-1c0,0,0-0.1,0-0.1l0,0l3.1-36.2
		l14.9-15l1.9,2.2l0,0c-3.8,4.4-6.6,9.8-7.6,15.8l-3.3,32.4v0c0,0.1,0.1,0.3,0.1,0.5c0,0,0.1,0.1,0.1,0.1l0,0.2l0.9,10.3l0,0
		c0.1,1,0.8,1.9,1.8,2.2l0,0l3.4,1l0,0c0.2,0.1,0.3,0.2,0.5,0.3l0,0l2.7,2.6l0,0c0.3,0.2,0.4,0.6,0.4,0.9c0,0.7-0.6,1.3-1.3,1.3
		c0,0,0,0,0,0l0,0l-8.5-0.3l0,0c-0.3,0-0.6-0.1-0.9-0.3l0,0l0,0c0,0,0,0,0,0l-2.7-1.8l0,0c-0.4-0.3-0.7-0.7-0.8-1.2l0,0L248.8,84.6
		L248.8,84.6z"/>
	<path fill="#1EB584" d="M186.7,25.9l-2.6,2.6l-1.4-1l-17.9,24.6l-7.4,10.1l0,0c-0.3,0.5-0.5,1-0.5,1.7c0,0-1.4,21.5-1.4,21.5
		c0,0.2,1.6,1.9,1.7,2.1l2.1,4.1l0,0c0.2,0.5,0.7,0.8,1.3,0.8l0,0l5.6,0.6c0.8,0,1.9-0.6,1.9-1.2c0-1.1-1.2-2.9-2.3-3.7l-2.8-1.8
		l0,0c-0.6-0.4-1-1-1-1.8c0-0.1,0-0.1,0-0.2l1.2-10.5l0,0c0.5-4.2,2-8.1,4.4-11.4c1.2-1.7,2.6-3.2,4.2-4.6
		c8.1-6.7,13.7-16.6,14.8-27.6l0-0.1h0C186.7,29.3,186.7,27.4,186.7,25.9z"/>
	<path fill="#1EB584" d="M315.4-43.9c0-0.1,0-0.3,0-0.4c0-0.1,0-0.1,0-0.2c0-0.1-0.1-0.2-0.1-0.3c-0.4-1.3-1.5-2.2-2.9-2.2
		c-0.3,0-0.5,0-0.7,0.1l-6.8,1.8c-0.8,0.2-1.6,0.3-2.5,0.3c-2.8,0-5.4-1.3-7.1-3.2l0,0c-0.3-0.5-0.8-0.9-1.2-1.3c0,0,0,0,0,0
		c-0.1-0.1-0.3-0.2-0.4-0.3c0,0,0,0,0,0c-0.1-0.1-0.3-0.2-0.4-0.2c0,0,0,0-0.1,0c-0.1-0.1-0.3-0.1-0.4-0.2c0,0-0.1,0-0.1,0
		c-0.1,0-0.3-0.1-0.4-0.1c0,0-0.1,0-0.1,0c-0.1,0-0.3,0-0.4-0.1c0,0-0.1,0-0.1,0c-0.2,0-0.4,0-0.6,0c-0.5,0-0.9,0.1-1.3,0.2l0,0
		l-9.2,2.3l-4.3,1l0,0c-1.3,0.3-2.5,1.2-3.3,2.3l0,0l-10.9,16.1l0,0l-1.7,2.5l0,0c-4.6,6.9-12.4,11.4-21.2,11.4
		c-2.6,0-5.1,0.3-7.5,0.7l0,0l-0.2,0c0,0,0,0,0,0l-34.8,7l-19.2,3.9l0,0c-3.3,0.6-6.5,1.9-9.2,3.7l0,0c-5.8,3.1-12.3,4.9-19.4,4.9
		c-9,0-17.6-3.2-24.3-8.1l0,0c-0.2-0.1-0.4-0.2-0.6-0.2c-0.6,0-1,0.5-1,1c0,0.4,0.2,0.6,0.5,0.8l0,0c7.4,7.8,17.8,12.5,29.3,12.5
		c0.7,0,1.4,0,2.1,0c0.9,3.9,1.4,7.9,1.4,12.1c0,13-4.7,24.9-12.4,34.2l0,0l0,0l-0.1,0.1c-2.7,3.2-5.8,6.2-9.2,8.7c0,0,0,0,0,0l0,0
		l0,0c-0.4,0.4-0.7,1-0.8,1.6l0,0l-3.8,26.7l0,0c0,0.1,0,0.1,0,0.2c0,0.3,0.1,0.5,0.2,0.8l0,0l2.1,3.9l0,0c0.2,0.4,0.5,0.6,0.9,0.8
		l4,1c0,0,0.6,0.3,0.9,0.3c0.4,0,0.7,0,1-0.1l3.5-1.2l0,0c0.4-0.2,0.7-0.6,0.7-1c0-0.2,0-0.3-0.1-0.4l-1.7-3.9c0,0,0,0,0,0l0,0l0,0
		c-0.4-1-1.3-1.7-2.4-1.8l0,0c-0.1-0.9-0.1-1.9-0.1-2.9c0-14.8,8.4-27.6,20.7-34l0,0c6.1-3.1,10.9-7.5,13.6-13.5
		c0,0,0.1-0.1,0.1-0.1c4.2-8.8,13.2-14.9,23.6-14.9c5.4,0,10.4,1.6,14.6,4.4c5.9,4.5,13.2,7.4,21.1,8l0,0c0,0,0,0,0,0
		c0,0,0.1,0,0.1,0c1.6,0.1,3,1.4,3,3.1l0,0.2L233,87.3l0,0c0,0.1,0,0.1,0,0.2c0,1.5,1.1,2.8,2.6,3.1c0.9,0.4,1.5,1.2,1.7,2.2l0.1,0
		l2.3,11.5l0,0c0,1.5,1.5,2.5,3,2.7v0l4.5,0.4l0,0c0,0,0.1,0,0.1,0c0.1,0,0.2-0.1,0.3-0.1h0l6.6-1.5l0,0c0.4-0.1,0.9-0.5,0.9-1
		c0-1.4-3.6-3.9-3.6-3.9c-0.3-0.3-0.6-0.5-1-0.6l0,0l-2.4-0.6l0,0c-1.2-0.3-2.1-1.3-2.4-2.5l0,0l-2-8.8l0,0c0-0.2-0.1-0.3-0.1-0.5
		c0-0.1,0-0.1,0-0.2l0-0.1l4.5-36.4l0,0c0.1-1,0.6-1.9,1.2-2.6l0,0l20.1-21.8l-0.2,0.1c2.6-2.8,4.6-6.3,5.7-10.2v0l0.1,0l0.1-0.1
		c0,0,0,0.1,0,0.1l6.4-25.4c0,0,0,0,0,0c2.5-9.2,10.2-16.2,19.8-17.6l0,0v0c8.1-1.6,14.2-8.7,14.3-17.3c0,0,0,0,0,0.1
		C315.4-43.8,315.4-43.9,315.4-43.9z M293.3-40.6c-1.1,0-1.9-0.9-1.9-1.9c0-1.1,0.9-1.9,1.9-1.9c1.1,0,1.9,0.9,1.9,1.9
		C295.2-41.4,294.3-40.6,293.3-40.6z"/>
</g>
</svg>
